# xmcd
#
# Track frame offsets:
#	150
#	14406
#	32025
#	49567
#	75261
#	101465
#
# Disc length: 1737 seconds
#
# Revision: 7
# Processed by: cddbd v1.5.2PL0 Copyright (c) Steve Scherf et al.
# Submitted via: EasyCDDAExtractor 2010.4.0.0
#
DISCID=3606c706
DTITLE=Lynyrd Skynyrd - God and Guns CD2
DYEAR=2009
DGENRE=Southern Rock
TTITLE0=Bang Bang
TTITLE1=Raining In My Heartland
TTITLE2=Hobo Kinda Man
TTITLE3=Red White and Blue (Live)
TTITLE4=Call Me The Breeze (Live)
TTITLE5=Sweet Home Alabama (Live)
EXTD=YEAR: 2009
EXTT0=
EXTT1=
EXTT2=
EXTT3=
EXTT4=
EXTT5=
PLAYORDER=
